<svg width="100" height="100" viewBox="0 0 100 100" xmlns="http://www.w3.org/2000/svg">
  <!-- 背景圆形 -->
  <circle cx="50" cy="50" r="45" fill="#6366f1" stroke="#4f46e5" stroke-width="2"/>
  
  <!-- Markdown 符号 "M" -->
  <path d="M20 35 L20 65 L25 65 L25 45 L35 60 L40 60 L50 45 L50 65 L55 65 L55 35 L45 35 L37.5 50 L30 35 Z" fill="white"/>
  
  <!-- 加号表示 "Plus" 功能 -->
  <circle cx="75" cy="25" r="12" fill="#10b981" stroke="#059669" stroke-width="1.5"/>
  <path d="M71 25 L79 25 M75 21 L75 29" stroke="white" stroke-width="2" stroke-linecap="round"/>
  
  <!-- 编辑工具图标 -->
  <g transform="translate(60, 55)">
    <!-- 笔 -->
    <path d="M2 18 L6 14 L14 22 L10 26 Z" fill="#f59e0b" stroke="#d97706" stroke-width="1"/>
    <!-- 笔尖 -->
    <path d="M6 14 L14 6 L18 10 L10 18 Z" fill="#fbbf24" stroke="#d97706" stroke-width="1"/>
    <!-- 高光 -->
    <path d="M8 12 L12 8 L14 10 L10 14 Z" fill="#fef3c7"/>
  </g>
  
  <!-- 装饰性闪光效果 -->
  <circle cx="30" cy="20" r="2" fill="white" opacity="0.8">
    <animate attributeName="opacity" values="0.8;0.3;0.8" dur="2s" repeatCount="indefinite"/>
  </circle>
  <circle cx="70" cy="75" r="1.5" fill="white" opacity="0.6">
    <animate attributeName="opacity" values="0.6;0.2;0.6" dur="2.5s" repeatCount="indefinite"/>
  </circle>
</svg>
